<?xml version="1.0" standalone="no"?>
<!DOCTYPE svg PUBLIC "-//W3C//DTD SVG 20010904//EN"
 "http://www.w3.org/TR/2001/REC-SVG-20010904/DTD/svg10.dtd">
<svg version="1.0" xmlns="http://www.w3.org/2000/svg"
 width="500.000000pt" height="500.000000pt" viewBox="0 0 500.000000 500.000000"
 preserveAspectRatio="xMidYMid meet">
<g transform="translate(0.000000,500.000000) scale(0.100000,-0.100000)"
fill="#000000" stroke="none">
<path d="M0 2500 l0 -2500 2500 0 2500 0 0 2500 0 2500 -2500 0 -2500 0 0
-2500z m1958 2038 c7 -7 12 -21 12 -32 -1 -18 -3 -17 -16 7 -13 23 -21 28 -47
25 -52 -5 -46 -32 13 -69 46 -28 51 -35 48 -63 -2 -23 -10 -33 -30 -40 -40
-14 -82 3 -85 34 -3 24 -3 25 7 3 11 -27 54 -40 75 -23 25 21 17 37 -35 69
-37 23 -50 37 -50 54 0 33 18 47 60 47 20 0 41 -5 48 -12z m396 -10 c3 -13 6
-56 6 -95 0 -58 -3 -73 -15 -73 -12 0 -15 16 -15 85 0 69 -3 86 -17 94 -16 9
-14 10 8 11 19 0 28 -6 33 -22z m344 -74 l3 -91 -48 1 c-42 1 -49 4 -61 29
-26 54 10 117 59 104 15 -4 19 0 19 18 0 13 -6 26 -12 29 -7 3 -2 4 12 3 24
-2 25 -4 28 -93z m190 65 c3 -22 7 -25 28 -21 36 7 64 -23 64 -67 0 -53 -13
-66 -65 -66 l-45 0 0 77 c0 58 -4 81 -17 93 -15 16 -15 17 8 13 17 -2 25 -10
27 -29z m-822 -5 c-4 -9 2 -14 17 -15 l22 0 -22 -9 c-17 -7 -23 -17 -23 -42 0
-57 10 -80 33 -74 14 3 17 2 10 -5 -6 -6 -21 -9 -34 -7 -22 3 -24 9 -27 63 -2
33 -9 63 -15 67 -8 5 -9 8 -1 8 7 0 14 9 17 21 3 12 10 18 17 14 6 -4 9 -13 6
-21z m136 -65 l21 -51 20 54 c11 29 22 48 24 42 5 -15 -56 -177 -70 -186 -26
-16 -29 -7 -7 17 l24 25 -24 58 c-12 31 -30 65 -38 75 -14 15 -13 17 7 17 17
0 27 -11 43 -51z m309 41 c11 -6 19 -21 19 -35 0 -22 -4 -25 -40 -25 -32 0
-40 -4 -40 -19 0 -31 26 -46 58 -32 25 10 26 10 8 -4 -45 -34 -96 -3 -96 59 0
53 44 81 91 56z m573 -41 l24 -50 17 50 c9 28 20 51 25 51 8 0 -39 -141 -61
-181 -5 -11 -17 -19 -26 -19 -14 0 -13 4 5 20 12 12 22 27 22 35 0 22 -49 128
-63 137 -8 5 -4 8 11 8 18 0 28 -11 46 -51z m-861 -417 c78 -39 129 -94 153
-165 25 -75 22 -146 -9 -209 -30 -61 -59 -91 -134 -140 l-52 -34 66 -90 c89
-120 250 -280 347 -343 43 -28 84 -51 91 -51 8 0 11 14 7 49 -20 216 262 532
549 615 310 90 667 -36 796 -279 66 -126 73 -207 19 -221 -26 -6 -66 10 -66
27 0 30 -67 145 -113 195 -60 66 -126 111 -212 144 -51 20 -78 24 -175 24 -98
0 -127 -5 -196 -27 -189 -63 -394 -255 -440 -415 -9 -31 -13 -65 -9 -83 7 -30
7 -30 27 -12 11 10 31 37 45 60 28 48 52 54 82 24 16 -16 18 -26 11 -52 -13
-43 -48 -109 -71 -135 -23 -25 -17 -32 52 -63 53 -25 144 -27 215 -6 79 23
141 69 349 260 108 99 203 181 211 183 19 5 74 -52 74 -76 0 -20 -40 -60 -312
-316 -238 -223 -264 -265 -185 -295 16 -6 50 -11 76 -11 26 0 52 -5 59 -12 17
-17 15 -48 -5 -70 -16 -17 -15 -18 18 -11 19 5 117 8 219 8 208 -1 296 -14
440 -69 102 -38 179 -87 253 -162 96 -97 137 -202 137 -354 0 -192 -80 -345
-214 -410 -59 -28 -170 -32 -227 -8 -81 35 -144 118 -170 224 -6 27 -15 53
-19 57 -11 13 -216 -59 -335 -117 -139 -68 -189 -105 -216 -158 -12 -24 -34
-61 -49 -83 l-28 -41 95 -119 c113 -141 291 -406 351 -522 l43 -83 48 58 c74
88 87 97 116 84 28 -13 59 -67 48 -85 -4 -7 -76 -99 -161 -205 -169 -210 -181
-219 -222 -162 -20 28 -21 34 -9 62 7 17 32 57 56 89 24 33 43 64 43 71 0 25
-119 213 -288 456 -64 91 -90 121 -102 116 -39 -16 -49 -13 -97 30 l-50 45
-33 -34 c-38 -39 -74 -45 -90 -16 -17 33 -11 56 30 114 33 46 40 64 40 103 0
65 32 127 100 196 67 66 199 155 303 202 90 41 275 102 340 111 55 8 60 14 52
57 l-6 33 -207 22 c-368 40 -482 95 -498 240 -10 92 49 164 179 217 l58 23
-59 5 c-119 8 -203 80 -188 160 4 21 21 59 39 86 l33 48 -61 -25 c-45 -18 -79
-24 -140 -25 -92 -1 -139 13 -199 58 -29 23 -58 35 -95 40 -77 10 -140 37
-233 99 -138 92 -316 285 -400 434 -16 29 -33 55 -38 58 -13 8 -70 -16 -70
-30 0 -7 18 -91 41 -186 67 -289 64 -452 -9 -522 -33 -31 -91 -57 -129 -57
-40 1 -104 32 -150 73 l-39 35 1 -161 c0 -124 -4 -177 -18 -227 -23 -86 -77
-197 -116 -242 -36 -42 -104 -78 -145 -78 -23 0 -27 -3 -21 -17 5 -10 15 -43
23 -74 15 -53 15 -57 -7 -101 -37 -78 -116 -117 -416 -208 -312 -94 -415 -143
-415 -198 0 -31 47 -80 88 -92 118 -32 374 11 764 129 200 61 231 64 253 20 9
-17 15 -42 13 -57 -3 -26 -11 -30 -323 -124 -419 -128 -527 -181 -527 -263 0
-31 35 -72 77 -90 110 -47 366 -11 767 107 213 62 247 67 272 39 10 -11 21
-40 23 -65 l5 -44 -68 -21 c-38 -11 -170 -50 -294 -86 -286 -84 -406 -128
-479 -175 -59 -38 -77 -65 -67 -98 15 -45 106 -62 206 -38 60 14 66 14 78 -2
16 -20 8 -68 -14 -93 -9 -10 -36 -26 -60 -35 -60 -23 -132 -13 -214 28 -80 41
-121 94 -128 166 -4 46 -2 52 34 91 39 44 92 75 199 118 33 13 49 22 35 19
-100 -19 -203 -28 -274 -24 -69 4 -92 9 -137 34 -71 40 -119 108 -119 171 0
40 5 49 53 97 28 29 81 67 117 85 l65 32 -50 -8 c-84 -14 -225 -9 -287 10 -68
21 -124 66 -149 122 -24 53 -24 82 4 127 51 84 154 131 518 238 321 95 371
129 324 220 -20 39 -61 66 -121 81 -27 6 -55 16 -61 22 -17 13 -16 56 1 63 10
4 2 28 -33 95 l-46 91 0 115 c0 105 -1 112 -15 91 -82 -126 -187 -165 -314
-118 -147 56 -230 218 -206 407 26 203 127 360 258 399 107 33 224 -42 208
-130 -7 -39 -37 -73 -70 -82 -49 -12 -116 41 -116 91 0 23 -17 18 -58 -19 -74
-67 -118 -191 -110 -310 7 -100 38 -154 110 -190 100 -50 181 -28 265 70 108
127 113 130 159 91 32 -27 34 -57 10 -138 -59 -198 57 -399 231 -399 66 0 105
26 137 92 44 89 59 184 53 338 -4 114 -9 147 -31 210 -15 41 -30 90 -33 108
-5 29 -2 34 24 44 l30 11 -28 86 c-46 144 -62 237 -63 371 -1 144 10 201 64
315 65 140 164 225 318 272 63 19 96 23 178 20 90 -2 107 -6 167 -35z m-19
-1532 c30 -11 35 -50 10 -71 -14 -12 -14 -14 5 -21 15 -5 21 -16 21 -38 0 -36
-26 -50 -96 -50 l-44 0 0 89 c0 62 -4 91 -12 94 -24 10 91 7 116 -3z m354 -21
c3 -22 7 -25 28 -21 36 7 64 -23 64 -68 0 -49 -24 -70 -78 -67 l-42 1 0 81 c0
51 -5 86 -12 94 -11 10 -8 12 12 9 18 -2 26 -10 28 -29z m-194 -41 c9 -12 16
-43 16 -68 l0 -46 -42 -1 c-46 -2 -68 10 -68 38 0 21 28 39 59 39 25 0 27 22
5 41 -12 10 -20 10 -35 1 -26 -16 -34 -15 -19 3 19 23 66 19 84 -7z m141 11
c3 -4 -7 -7 -22 -6 -28 2 -28 1 -31 -60 -2 -47 -7 -63 -17 -63 -12 0 -15 14
-15 58 0 32 -5 63 -11 69 -8 8 4 11 40 11 28 0 54 -4 56 -9z m279 -11 c27 -38
20 -48 -29 -48 -46 0 -53 -7 -35 -41 12 -22 39 -25 60 -6 12 10 12 9 1 -5 -31
-41 -101 -5 -101 52 0 60 72 94 104 48z m131 11 c3 -4 -7 -7 -22 -6 -28 2 -28
1 -31 -60 -2 -47 -7 -63 -17 -63 -12 0 -15 14 -15 58 0 32 -5 63 -11 69 -8 8
4 11 40 11 28 0 54 -4 56 -9z m-384 -469 c22 -12 26 -59 7 -78 -30 -30 -89 -2
-87 41 0 19 1 19 7 5 7 -17 8 -16 20 2 8 13 8 20 1 20 -5 0 -7 5 -4 10 8 13
31 13 56 0z m67 -137 c31 -23 72 -79 72 -99 0 -11 -34 -14 -170 -14 -112 0
-170 4 -170 10 0 35 55 100 100 119 40 17 136 8 168 -16z m88 -151 c0 -17 -13
-18 -182 -18 -100 1 -185 4 -189 8 -22 22 17 28 188 28 170 0 183 -1 183 -18z
m-231 -78 c38 -19 95 -54 125 -77 l55 -43 -3 -88 -3 -87 -34 30 c-43 37 -145
94 -212 117 l-53 19 0 88 0 89 27 -7 c15 -3 59 -22 98 -41z m215 -45 l0 -90
-54 47 c-30 27 -90 67 -133 91 l-78 43 133 0 132 0 0 -91z m0 -207 c0 -80 -1
-84 -17 -69 -15 13 -17 29 -15 97 3 69 6 79 18 69 10 -8 14 -35 14 -97z m-203
47 c52 -25 104 -60 143 -97 l60 -58 0 -94 c0 -87 -1 -93 -16 -78 -13 13 -17
37 -17 105 l-1 88 -3 -81 -4 -81 -78 52 c-66 44 -114 67 -208 100 -9 3 -13 33
-13 101 l0 96 28 -6 c15 -4 64 -25 109 -47z m-56 -185 c77 -32 202 -116 235
-159 22 -29 24 -42 24 -130 0 -85 -2 -96 -15 -85 -11 9 -16 38 -17 119 l-2
106 -3 -97 -4 -97 -46 35 c-51 39 -156 94 -215 113 l-38 13 0 104 c0 57 4 104
8 104 5 0 37 -12 73 -26z m7 -234 c43 -17 108 -53 147 -82 67 -51 70 -55 68
-93 0 -25 1 -29 4 -12 7 45 33 26 33 -25 0 -18 -5 -19 -87 -15 -71 3 -104 10
-170 38 l-82 34 -1 93 c0 50 2 92 5 92 3 0 40 -13 83 -30z m19 -214 c28 -15
27 -15 -39 -16 l-68 0 0 30 0 29 39 -14 c22 -7 52 -20 68 -29z m247 -41 c3 -9
0 -18 -7 -21 -7 -2 -91 -3 -186 -2 -157 3 -174 5 -177 21 -2 16 12 17 181 17
155 0 184 -2 189 -15z m-14 -53 c0 -56 -99 -132 -171 -132 -72 0 -169 76 -169
131 0 18 11 19 170 19 156 0 170 -1 170 -18z"/>
<path d="M2621 4471 c-24 -44 -1 -111 33 -98 24 10 19 110 -6 115 -9 2 -21 -6
-27 -17z"/>
<path d="M2903 4483 c-19 -7 -17 -99 2 -107 39 -14 64 36 42 83 -13 26 -24 32
-44 24z"/>
<path d="M2463 4483 c-7 -2 -13 -13 -13 -24 0 -14 7 -19 30 -19 33 0 35 3 20
31 -11 19 -16 21 -37 12z"/>
<path d="M1947 3925 c-211 -58 -317 -209 -317 -451 0 -164 48 -343 142 -526
59 -115 114 -178 158 -178 44 0 54 27 45 132 -6 82 -27 198 -71 391 l-17 77
-42 0 c-49 0 -68 17 -63 57 2 23 10 30 41 37 l37 10 0 65 c1 132 34 195 100
189 35 -3 35 -4 34 -48 0 -25 -4 -73 -9 -107 -4 -35 -5 -63 -1 -63 16 0 139
61 179 89 75 51 98 140 58 226 -46 99 -145 136 -274 100z"/>
<path d="M3577 2360 c-160 -21 -244 -54 -262 -104 -8 -24 -6 -31 13 -46 39
-32 218 -65 507 -94 l61 -7 13 36 c14 41 43 59 77 51 21 -6 24 -12 24 -56 0
-37 4 -50 15 -50 31 0 128 -44 161 -72 28 -24 34 -37 34 -69 0 -29 -5 -41 -21
-50 -18 -9 -32 -5 -88 24 -36 19 -77 38 -90 42 l-24 7 6 -63 c11 -116 27 -169
63 -209 59 -65 171 -75 250 -23 94 61 119 284 48 425 -100 197 -426 304 -787
258z"/>
<path d="M2130 2460 c0 -39 2 -41 26 -38 15 2 32 11 38 21 15 24 -3 51 -38 55
-24 3 -26 1 -26 -38z"/>
<path d="M2130 2370 c0 -34 3 -40 21 -40 31 0 59 19 59 40 0 21 -28 40 -59 40
-18 0 -21 -6 -21 -40z"/>
<path d="M2567 2443 c-4 -3 -7 -28 -7 -54 0 -34 4 -49 16 -53 25 -10 44 13 44
53 0 48 -30 78 -53 54z"/>
<path d="M2305 2374 c-15 -15 -15 -19 -1 -32 20 -20 46 -8 46 23 0 29 -21 33
-45 9z"/>
<path d="M2722 2438 c-21 -21 -13 -38 18 -38 18 0 30 5 30 13 0 13 -19 37 -30
37 -3 0 -11 -5 -18 -12z"/>
<path d="M2425 1840 c-3 -5 1 -10 9 -10 9 0 16 5 16 10 0 6 -4 10 -9 10 -6 0
-13 -4 -16 -10z"/>
<path d="M2371 1795 c-32 -36 -39 -55 -21 -55 6 0 10 4 10 9 0 5 12 24 26 41
37 44 23 48 -15 5z"/>
<path d="M2633 1580 c0 -36 2 -50 4 -32 2 17 2 47 0 65 -2 17 -4 3 -4 -33z"/>
<path d="M2600 625 c-19 -19 -30 -35 -24 -35 13 0 64 48 64 60 0 15 -3 13 -40
-25z"/>
<path d="M2535 580 c-3 -5 -1 -10 4 -10 6 0 11 5 11 10 0 6 -2 10 -4 10 -3 0
-8 -4 -11 -10z"/>
</g>
</svg>
